<svg xmlns="http://www.w3.org/2000/svg" width="230" height="270" viewBox="0 0 230 270">
  <g id="Group_164" data-name="Group 164" transform="translate(53 -226)">
    <path id="Subtraction_6" data-name="Subtraction 6" d="M49,98a48.771,48.771,0,0,1-27.4-8.368A49.143,49.143,0,0,1,3.851,68.073,48.935,48.935,0,0,1,8.368,21.6,49.143,49.143,0,0,1,29.927,3.851,48.935,48.935,0,0,1,76.4,8.368,49.143,49.143,0,0,1,94.149,29.927,48.935,48.935,0,0,1,89.631,76.4,49.143,49.143,0,0,1,68.073,94.149,48.693,48.693,0,0,1,49,98Zm.269-87.231A37.423,37.423,0,1,0,86.692,48.192,37.466,37.466,0,0,0,49.269,10.769Z" transform="translate(22 226)" fill="rgba(230,126,34,0.38)"/>
    <circle id="Ellipse_16" data-name="Ellipse 16" cx="91" cy="91" r="91" transform="translate(-53 244)" fill="#2d2d2d"/>
    <path id="Subtraction_5" data-name="Subtraction 5" d="M91,182a90.574,90.574,0,0,1-50.879-15.541,91.266,91.266,0,0,1-32.97-40.037,90.88,90.88,0,0,1,8.39-86.3A91.266,91.266,0,0,1,55.579,7.151a90.88,90.88,0,0,1,86.3,8.39,91.266,91.266,0,0,1,32.97,40.037,90.88,90.88,0,0,1-8.39,86.3,91.266,91.266,0,0,1-40.037,32.97A90.43,90.43,0,0,1,91,182Zm.5-162A69.5,69.5,0,1,0,161,89.5,69.579,69.579,0,0,0,91.5,20Z" transform="translate(-5 314)" fill="rgba(230,126,34,0.38)"/>
  </g>
</svg>
