<svg xmlns="http://www.w3.org/2000/svg" viewBox="0 0 45 45">
  <g id="Group_135" data-name="Group 135" transform="translate(-1335 -380)">
    <circle id="Ellipse_52" data-name="Ellipse 52" cx="22.5" cy="22.5" r="22.5" transform="translate(1335 380)" fill="currentFill"/>
    <g id="add-friend" transform="translate(1344.499 389.723)">
      <path id="Path_13" data-name="Path 13" d="M20.344,12.739A5.656,5.656,0,0,0,15.6,15.315,8.151,8.151,0,0,0,11.187,10.9a5.657,5.657,0,1,0-6.161,0A8.117,8.117,0,0,0,0,18.4v2.856a2.8,2.8,0,0,0,2.8,2.8H13.409a2.806,2.806,0,0,0,2.668-1.947,5.656,5.656,0,1,0,4.267-9.367ZM3.972,6.157a4.134,4.134,0,1,1,4.134,4.134A4.138,4.138,0,0,1,3.972,6.157ZM14.687,21.251a1.279,1.279,0,0,1-1.278,1.278H2.8a1.279,1.279,0,0,1-1.278-1.278V18.4a6.581,6.581,0,0,1,13.163,0v2.856Zm5.657,1.278A4.134,4.134,0,1,1,24.478,18.4,4.138,4.138,0,0,1,20.344,22.529Zm0,0" transform="translate(0 0)" fill="currentColor"/>
      <path id="Path_14" data-name="Path 14" d="M357.494,307.4h-.87v-.87a.762.762,0,0,0-1.523,0v.87h-.87a.762.762,0,1,0,0,1.523h.87v.87a.762.762,0,1,0,1.523,0v-.87h.87a.762.762,0,1,0,0-1.523Zm0,0" transform="translate(-335.518 -289.763)" fill="currentColor"/>
    </g>
  </g>
</svg>
