<svg xmlns="http://www.w3.org/2000/svg" viewBox="0 0 20 20">
  <g id="Group_182" data-name="Group 182" transform="translate(-643 -178)">
    <circle id="Ellipse_66" data-name="Ellipse 66" cx="10" cy="10" r="10" transform="translate(643 178)" fill="currentFill"/>
    <g id="edit" transform="translate(648.575 183.234)">
      <path id="Path_17" data-name="Path 17" d="M9.118,44.384a.246.246,0,0,0-.246.246v2.185a.739.739,0,0,1-.738.738H1.23a.739.739,0,0,1-.738-.738V40.4a.739.739,0,0,1,.738-.738H3.415a.246.246,0,0,0,0-.492H1.23A1.232,1.232,0,0,0,0,40.4v6.412a1.232,1.232,0,0,0,1.23,1.23h6.9a1.232,1.232,0,0,0,1.23-1.23V44.63a.246.246,0,0,0-.246-.246Zm0,0" transform="translate(0 -38.215)" fill="currentColor"/>
      <path id="Path_18" data-name="Path 18" d="M114.8.585a1.107,1.107,0,0,0-1.566,0l-4.39,4.39a.246.246,0,0,0-.063.108L108.2,7.167a.246.246,0,0,0,.3.3l2.084-.577a.246.246,0,0,0,.108-.063l4.39-4.39a1.108,1.108,0,0,0,0-1.566Zm-5.419,4.55,3.593-3.593L114.127,2.7l-3.593,3.593Zm-.231.464.926.926-1.28.355Zm5.592-3.507-.261.261-1.159-1.159.261-.261a.615.615,0,0,1,.87,0l.289.289A.616.616,0,0,1,114.736,2.092Zm0,0" transform="translate(-105.528 -0.261)" fill="currentColor"/>
    </g>
  </g>
</svg>
