<svg xmlns="http://www.w3.org/2000/svg" viewBox="0 0 15 13.869">
  <path id="favourite" d="M10.679.5A4.661,4.661,0,0,0,7.5,1.783,4.661,4.661,0,0,0,4.321.5,4.275,4.275,0,0,0,0,4.821c0,2.832,3.265,5.95,7.209,9.438a.439.439,0,0,0,.582,0C11.735,10.771,15,7.653,15,4.821A4.275,4.275,0,0,0,10.679.5ZM7.5,13.343C3.976,10.214.879,7.218.879,4.821A3.406,3.406,0,0,1,4.321,1.379,3.823,3.823,0,0,1,7.165,2.706a.44.44,0,0,0,.671,0,3.823,3.823,0,0,1,2.843-1.327,3.406,3.406,0,0,1,3.442,3.442C14.121,7.218,11.024,10.214,7.5,13.343Zm0,0" transform="translate(0 -0.5)" fill="currentColor"/>
</svg>
