<svg xmlns="http://www.w3.org/2000/svg" width="15" height="15" viewBox="0 0 15 15">
  <g id="Group_128" data-name="Group 128" transform="translate(975 -2961)">
    <g id="newsfeed" transform="translate(-975 2961)">
      <path id="Path_1" data-name="Path 1" d="M13.384,0H1.616A1.618,1.618,0,0,0,0,1.616V13.384A1.618,1.618,0,0,0,1.616,15H13.384A1.618,1.618,0,0,0,15,13.384V1.616A1.618,1.618,0,0,0,13.384,0ZM1.616.879H13.384a.738.738,0,0,1,.737.737V3.766H.879V1.616A.738.738,0,0,1,1.616.879ZM13.384,14.121H1.616a.738.738,0,0,1-.737-.737V4.645H14.121v8.739a.738.738,0,0,1-.737.737Zm0,0" transform="translate(0 0)" fill="#fff"/>
      <path id="Path_2" data-name="Path 2" d="M128.97,65.16h6.581a.447.447,0,0,0,0-.894H128.97a.447.447,0,0,0,0,.894Zm0,0" transform="translate(-124.76 -62.349)" fill="#fff"/>
      <path id="Path_3" data-name="Path 3" d="M64.713,211.678h1.916a.447.447,0,0,0,.447-.447v-1.916a.447.447,0,0,0-.447-.447H64.713a.447.447,0,0,0-.447.447v1.916A.447.447,0,0,0,64.713,211.678Zm.447-1.916h1.022v1.022H65.16Zm0,0" transform="translate(-62.349 -202.773)" fill="#fff"/>
      <path id="Path_4" data-name="Path 4" d="M199.954,273.133h-6.707a.447.447,0,1,0,0,.895h6.707a.447.447,0,1,0,0-.895Zm0,0" transform="translate(-187.317 -265.14)" fill="#fff"/>
      <path id="Path_5" data-name="Path 5" d="M75,337.4H64.7a.447.447,0,0,0,0,.895H75a.447.447,0,0,0,0-.895Zm0,0" transform="translate(-62.349 -327.528)" fill="#fff"/>
      <path id="Path_6" data-name="Path 6" d="M75,401.668H64.7a.447.447,0,0,0,0,.895H75a.447.447,0,0,0,0-.895Zm0,0" transform="translate(-62.349 -389.913)" fill="#fff"/>
      <path id="Path_7" data-name="Path 7" d="M199.954,208.867h-6.707a.447.447,0,0,0,0,.895h6.707a.447.447,0,1,0,0-.895Zm0,0" transform="translate(-187.317 -202.755)" fill="#fff"/>
    </g>
  </g>
</svg>
