<svg xmlns="http://www.w3.org/2000/svg" width="15" height="13.588" viewBox="0 0 15 13.588">
  <g id="Group_129" data-name="Group 129" transform="translate(560 -3029)">
    <path id="friends" d="M12.1,6A3.263,3.263,0,1,0,7.5,1.63,3.263,3.263,0,1,0,2.9,6,4.683,4.683,0,0,0,0,10.325v1.647a1.618,1.618,0,0,0,1.616,1.616H13.385A1.618,1.618,0,0,0,15,11.972V10.325A4.683,4.683,0,0,0,12.1,6ZM10.326.879A2.385,2.385,0,1,1,7.941,3.264,2.387,2.387,0,0,1,10.326.879ZM7.5,6.6A4.675,4.675,0,0,0,6.454,6,3.289,3.289,0,0,0,7.5,4.9,3.29,3.29,0,0,0,8.548,6,4.668,4.668,0,0,0,7.5,6.6ZM2.292,3.264A2.385,2.385,0,1,1,4.677,5.649,2.387,2.387,0,0,1,2.292,3.264Zm4.974,9.445H1.618a.738.738,0,0,1-.737-.737V10.325a3.8,3.8,0,0,1,7.594,0v1.647a.738.738,0,0,1-.737.737Zm6.856-.737a.738.738,0,0,1-.737.737H9.174a1.6,1.6,0,0,0,.179-.737V10.325A4.657,4.657,0,0,0,8.159,7.207a3.8,3.8,0,0,1,5.964,3.118Zm0,0" transform="translate(-560.001 3029)" fill="#fff"/>
  </g>
</svg>
