<svg xmlns="http://www.w3.org/2000/svg" viewBox="0 0 15 13.588">
  <path id="like" d="M13.383,4.707H9.351V1.616A1.618,1.618,0,0,0,7.735,0H6.794A1.618,1.618,0,0,0,5.177,1.616V3.58L3.523,5.648H1.616A1.618,1.618,0,0,0,0,7.265v4.707a1.618,1.618,0,0,0,1.616,1.616H11.03a2.653,2.653,0,0,0,2.132-1.255l1.211-2.179A5.8,5.8,0,0,0,15,7.735V6.323a1.618,1.618,0,0,0-1.616-1.616ZM.879,11.972V7.265a.738.738,0,0,1,.737-.737H3.295v6.182H1.616a.738.738,0,0,1-.737-.737ZM14.121,7.735A4.938,4.938,0,0,1,13.6,9.727l-1.211,2.179a1.776,1.776,0,0,1-1.364.8H4.174V6.242L5.96,4.009a.439.439,0,0,0,.1-.275V1.616A.738.738,0,0,1,6.794.879h.941a.738.738,0,0,1,.737.737v3.53a.439.439,0,0,0,.439.439h4.472a.738.738,0,0,1,.737.737Zm0,0" transform="translate(0)" fill="currentColor"/>
</svg>
