<svg xmlns="http://www.w3.org/2000/svg" viewBox="0 0 30 30">
  <g id="Group_228" data-name="Group 228" transform="translate(-881 -204)">
    <circle id="Ellipse_76" data-name="Ellipse 76" cx="15" cy="15" r="15" transform="translate(881 204)" fill="currentFill"/>
    <g id="Group_22" data-name="Group 22" transform="translate(889 209)">
      <path id="Path_12" data-name="Path 12" d="M13.393,0H1.607A1.607,1.607,0,0,0,0,1.609v8.571a1.607,1.607,0,0,0,1.607,1.607h1.9l-.291,2.62a.536.536,0,0,0,.891.457l3.419-3.077h5.866A1.607,1.607,0,0,0,15,10.181V1.609A1.607,1.607,0,0,0,13.393,0Zm.536,10.179a.536.536,0,0,1-.536.536H7.322a.536.536,0,0,0-.358.138L4.438,13.127l.2-1.816a.536.536,0,0,0-.532-.6h-2.5a.536.536,0,0,1-.536-.536V1.609a.536.536,0,0,1,.536-.536H13.393a.536.536,0,0,1,.536.536v8.571Z" transform="translate(0 2.998)" fill="currentColor"/>
    </g>
  </g>
</svg>
