<svg xmlns="http://www.w3.org/2000/svg" width="10" height="12.638" viewBox="0 0 10 12.638">
  <path id="notification" d="M63.228,10.057a1.964,1.964,0,0,1-.6-.813,9.4,9.4,0,0,1-.622-3.715s0-.009,0-.014A3.586,3.586,0,0,0,59.9,2.263V1.408A1.408,1.408,0,0,0,58.492,0h-.116A1.408,1.408,0,0,0,56.97,1.408v.855A3.586,3.586,0,0,0,54.859,5.53a9.4,9.4,0,0,1-.622,3.715,1.963,1.963,0,0,1-.6.813.36.36,0,0,0-.2.409.377.377,0,0,0,.371.289h2.714a1.906,1.906,0,0,0,3.812,0h2.714a.377.377,0,0,0,.371-.289A.36.36,0,0,0,63.228,10.057ZM57.711,1.408a.666.666,0,0,1,.665-.666h.116a.666.666,0,0,1,.665.666v.615a3.586,3.586,0,0,0-1.447,0V1.408ZM58.434,11.9a1.168,1.168,0,0,1-1.166-1.14H59.6A1.168,1.168,0,0,1,58.434,11.9Zm1.491-1.882H54.658a3.881,3.881,0,0,0,.194-.341A9.374,9.374,0,0,0,55.6,5.53a2.834,2.834,0,1,1,5.668,0s0,.009,0,.014a9.355,9.355,0,0,0,.748,4.129,3.883,3.883,0,0,0,.194.341Z" transform="translate(-53.434 0)" fill="#fff"/>
</svg>
