<svg xmlns="http://www.w3.org/2000/svg" width="15" height="14.999" viewBox="0 0 15 14.999">
  <g id="tag" transform="translate(0 0.001)">
    <path id="Path_8" data-name="Path 8" d="M13.385,0H7.693a.44.44,0,0,0-.311.129L.472,7.038a1.617,1.617,0,0,0,0,2.283l5.206,5.206A1.6,1.6,0,0,0,6.82,15h0a1.6,1.6,0,0,0,1.142-.472l6.91-6.91A.44.44,0,0,0,15,7.306V1.614A1.617,1.617,0,0,0,13.385,0Zm.736,7.125L7.34,13.905a.739.739,0,0,1-1.04,0L1.094,8.7a.737.737,0,0,1,0-1.041L7.875.878h5.511a.737.737,0,0,1,.736.736Zm0,0" transform="translate(0 0)" fill="#fff"/>
    <path id="Path_9" data-name="Path 9" d="M334.119,85.078a1.466,1.466,0,1,0,1.037.43A1.457,1.457,0,0,0,334.119,85.078Zm.377,1.843a.533.533,0,1,1,.156-.377A.529.529,0,0,1,334.5,86.921Zm0,0" transform="translate(-323.042 -82.621)" fill="#fff"/>
  </g>
</svg>
