<svg xmlns="http://www.w3.org/2000/svg" width="41" height="31" viewBox="0 0 41 31">
  <g id="Group_179" data-name="Group 179" transform="translate(0 0.132)">
    <path id="Subtraction_1" data-name="Subtraction 1" d="M15.5,30a15.847,15.847,0,0,1-6.033-1.179A15.487,15.487,0,0,1,4.54,25.607a14.933,14.933,0,0,1-3.322-4.768,14.6,14.6,0,0,1,0-11.677A14.932,14.932,0,0,1,4.54,4.393,15.487,15.487,0,0,1,9.467,1.179a16.03,16.03,0,0,1,12.067,0A15.487,15.487,0,0,1,26.46,4.393a14.932,14.932,0,0,1,3.322,4.768,14.6,14.6,0,0,1,0,11.677,14.933,14.933,0,0,1-3.322,4.768,15.487,15.487,0,0,1-4.927,3.215A15.847,15.847,0,0,1,15.5,30Zm0-24.375A9.584,9.584,0,0,0,5.741,15,9.584,9.584,0,0,0,15.5,24.375,9.584,9.584,0,0,0,25.259,15,9.584,9.584,0,0,0,15.5,5.625Z" transform="translate(0 -0.132)" fill="#fff"/>
    <path id="Subtraction_2" data-name="Subtraction 2" d="M15.5,31A15.5,15.5,0,0,1,9.467,1.218,15.5,15.5,0,0,1,21.533,29.782,15.4,15.4,0,0,1,15.5,31Zm0-25.187A9.688,9.688,0,1,0,25.259,15.5,9.734,9.734,0,0,0,15.5,5.813Z" transform="translate(10 -0.132)" fill="#e67e22"/>
  </g>
</svg>
