<svg xmlns="http://www.w3.org/2000/svg" height="14.737" viewBox="0 0 20 14.737">
  <g id="Group_88" data-name="Group 88" transform="translate(0 -0.253)">
    <path id="Subtraction_1" data-name="Subtraction 1" d="M7.5,14.737a7.568,7.568,0,0,1-2.919-.579A7.484,7.484,0,0,1,2.2,12.579,7.338,7.338,0,0,1,.589,10.236a7.273,7.273,0,0,1,0-5.736A7.338,7.338,0,0,1,2.2,2.158,7.484,7.484,0,0,1,4.581.579a7.649,7.649,0,0,1,5.839,0A7.484,7.484,0,0,1,12.8,2.158,7.338,7.338,0,0,1,14.411,4.5a7.273,7.273,0,0,1,0,5.736A7.338,7.338,0,0,1,12.8,12.579a7.484,7.484,0,0,1-2.384,1.579A7.568,7.568,0,0,1,7.5,14.737Zm0-11.974A4.67,4.67,0,0,0,2.778,7.368,4.67,4.67,0,0,0,7.5,11.974a4.67,4.67,0,0,0,4.722-4.605A4.67,4.67,0,0,0,7.5,2.763Z" transform="translate(0 0.253)" fill="#fff"/>
    <path id="Subtraction_2" data-name="Subtraction 2" d="M7.5,14.737a7.568,7.568,0,0,1-2.919-.579A7.484,7.484,0,0,1,2.2,12.579,7.338,7.338,0,0,1,.589,10.236a7.273,7.273,0,0,1,0-5.736A7.338,7.338,0,0,1,2.2,2.158,7.484,7.484,0,0,1,4.581.579a7.649,7.649,0,0,1,5.839,0A7.484,7.484,0,0,1,12.8,2.158,7.338,7.338,0,0,1,14.411,4.5a7.273,7.273,0,0,1,0,5.736A7.338,7.338,0,0,1,12.8,12.579a7.484,7.484,0,0,1-2.384,1.579A7.568,7.568,0,0,1,7.5,14.737Zm0-11.974A4.67,4.67,0,0,0,2.778,7.368,4.67,4.67,0,0,0,7.5,11.974a4.67,4.67,0,0,0,4.722-4.605A4.67,4.67,0,0,0,7.5,2.763Z" transform="translate(5 0.253)" fill="#e67e22"/>
  </g>
</svg>
