<svg xmlns="http://www.w3.org/2000/svg" width="173" height="81" viewBox="0 0 173 81">
  <g id="Group_160" data-name="Group 160" transform="translate(-1321 -978)">
    <g id="Group_3" data-name="Group 3" transform="translate(2311)">
      <path id="Subtraction_1" data-name="Subtraction 1" d="M40.5,80A40.628,40.628,0,0,1,11.862,68.284,39.843,39.843,0,0,1,3.183,55.569a39.676,39.676,0,0,1,0-31.14,39.842,39.842,0,0,1,8.679-12.714,40.939,40.939,0,0,1,44.4-8.572,40.4,40.4,0,0,1,12.873,8.572A39.842,39.842,0,0,1,77.817,24.43a39.676,39.676,0,0,1,0,31.14,39.843,39.843,0,0,1-8.679,12.715A40.628,40.628,0,0,1,40.5,80Zm0-65C26.439,15,15,26.215,15,40S26.439,65,40.5,65,66,53.785,66,40,54.561,15,40.5,15Z" transform="translate(-990 978)" fill="#fff"/>
      <path id="Subtraction_2" data-name="Subtraction 2" d="M40.5,80A40.628,40.628,0,0,1,11.862,68.284,39.843,39.843,0,0,1,3.183,55.569a39.676,39.676,0,0,1,0-31.14,39.842,39.842,0,0,1,8.679-12.714,40.939,40.939,0,0,1,44.4-8.572,40.4,40.4,0,0,1,12.873,8.572A39.842,39.842,0,0,1,77.817,24.43a39.676,39.676,0,0,1,0,31.14,39.843,39.843,0,0,1-8.679,12.715A40.628,40.628,0,0,1,40.5,80Zm0-65C26.439,15,15,26.215,15,40S26.439,65,40.5,65,66,53.785,66,40,54.561,15,40.5,15Z" transform="translate(-963 979)" fill="#e67e22"/>
    </g>
    <text id="CRIT" transform="translate(1429 1052)" fill="#fff" font-size="29" font-family="Raleway-SemiBold, Raleway" font-weight="600"><tspan x="0" y="0">CRIT</tspan></text>
  </g>
</svg>
