<svg xmlns="http://www.w3.org/2000/svg" width="1549" height="1160" viewBox="0 0 1549 1160">
  <g id="Group_35" data-name="Group 35" transform="translate(0 0.069)" opacity="0.14">
    <path id="Subtraction_1" data-name="Subtraction 1" d="M581,1145A583.525,583.525,0,0,1,170.17,977.315,570.208,570.208,0,0,1,45.658,795.337a566.648,566.648,0,0,1,0-445.685A570.183,570.183,0,0,1,170.17,167.678,588.367,588.367,0,0,1,807.152,44.989,579.608,579.608,0,0,1,991.83,167.678a570.18,570.18,0,0,1,124.513,181.974,566.647,566.647,0,0,1,0,445.685A570.208,570.208,0,0,1,991.83,977.315,583.525,583.525,0,0,1,581,1145Zm0-930.308c-201.709,0-365.811,160.509-365.811,357.8S379.291,930.309,581,930.309,946.811,769.793,946.811,572.494,782.709,214.692,581,214.692Z" transform="translate(0 -0.069)" fill="#fff"/>
    <path id="Subtraction_2" data-name="Subtraction 2" d="M581,1145A583.525,583.525,0,0,1,170.17,977.315,570.208,570.208,0,0,1,45.658,795.337a566.648,566.648,0,0,1,0-445.685A570.183,570.183,0,0,1,170.17,167.678,588.367,588.367,0,0,1,807.152,44.989,579.608,579.608,0,0,1,991.83,167.678a570.18,570.18,0,0,1,124.513,181.974,566.647,566.647,0,0,1,0,445.685A570.208,570.208,0,0,1,991.83,977.315,583.525,583.525,0,0,1,581,1145Zm0-930.308c-201.709,0-365.811,160.509-365.811,357.8S379.291,930.309,581,930.309,946.811,769.793,946.811,572.494,782.709,214.692,581,214.692Z" transform="translate(387 14.931)" fill="#e67e22"/>
  </g>
</svg>
